<svg width="98" height="26" viewBox="0 0 98 26" fill="none" xmlns="http://www.w3.org/2000/svg">
<g clip-path="url(#clip0_6091_5511)">
<path fill-rule="evenodd" clip-rule="evenodd" d="M0.204102 2.86233L1.91736 2.12168C8.28641 -0.631705 15.5213 -0.631705 21.8904 2.12168L23.6037 2.86233V14.3076C23.6037 20.7248 18.3655 25.9271 11.9039 25.9271C5.44226 25.9271 0.204102 20.7248 0.204102 14.3076V2.86233ZM3.91096 5.28279V10.2915C4.30627 10.1964 4.69447 10.0709 5.07194 9.9156C6.02764 9.52247 6.896 8.94622 7.62745 8.21978C8.35891 7.49335 8.93912 6.63095 9.33499 5.68181C9.5824 5.08864 9.75477 4.46883 9.84925 3.8366C7.8273 4.031 5.82673 4.51308 3.91096 5.28279ZM3.91163 14.4123C4.30671 14.5073 4.69468 14.6328 5.07194 14.788C6.02764 15.1812 6.896 15.7574 7.62745 16.4838C8.35891 17.2103 8.93912 18.0727 9.33499 19.0218C9.72924 19.967 9.93293 20.9798 9.9346 22.0029C6.50515 21.1399 3.95933 18.0753 3.91163 14.4123ZM11.788 15.7734C11.3448 15.0918 10.8291 14.4571 10.2486 13.8807C9.66814 13.3042 9.02906 12.792 8.3428 12.3518C9.02906 11.9116 9.66814 11.3994 10.2486 10.8229C10.8291 10.2465 11.3448 9.61177 11.788 8.93023C12.2313 9.61177 12.747 10.2465 13.3275 10.8229C13.9079 11.3994 14.547 11.9116 15.2332 12.3518C14.547 12.792 13.9079 13.3042 13.3275 13.8807C12.747 14.4571 12.2313 15.0918 11.788 15.7734ZM13.6415 22.0575C17.2038 21.2732 19.872 18.1283 19.8966 14.3602C19.4213 14.4595 18.955 14.6025 18.5041 14.788C17.5484 15.1812 16.6801 15.7574 15.9486 16.4838C15.2171 17.2103 14.6369 18.0727 14.2411 19.0218C13.8452 19.9709 13.6415 20.9882 13.6415 22.0155V22.0575ZM18.5041 9.9156C18.9551 10.1011 19.4214 10.2442 19.8968 10.3435V5.28279C17.9069 4.48328 15.8255 3.99411 13.7237 3.81531C13.8174 4.45494 13.9909 5.082 14.2411 5.68181C14.6369 6.63095 15.2171 7.49335 15.9486 8.21978C16.6801 8.94622 17.5484 9.52247 18.5041 9.9156Z" fill="#111112"/>
<path fill-rule="evenodd" clip-rule="evenodd" d="M51.4388 23.6435C50.8827 23.6435 50.3823 23.511 49.9375 23.2459C49.4927 22.9734 49.1405 22.6053 48.881 22.1414C48.629 21.6702 48.5029 21.1401 48.5029 20.551C48.5029 19.9546 48.629 19.4245 48.881 18.9607C49.1405 18.4968 49.489 18.1323 49.9264 17.8673C50.3712 17.5949 50.8753 17.4586 51.4388 17.4586C51.9503 17.4586 52.4062 17.5691 52.8066 17.79C53.1344 17.9708 53.405 18.2034 53.6184 18.4879V15.1504H54.4524V23.511H53.6184V22.5463C53.4187 22.8599 53.1518 23.1115 52.8177 23.3011C52.41 23.5294 51.9503 23.6435 51.4388 23.6435ZM51.4832 22.8151C51.8836 22.8151 52.2431 22.7157 52.5619 22.5169C52.8881 22.3181 53.1439 22.0494 53.3293 21.7107C53.522 21.3646 53.6184 20.9781 53.6184 20.551C53.6184 20.124 53.522 19.7411 53.3293 19.4024C53.1439 19.0564 52.8881 18.7839 52.5619 18.5852C52.2431 18.3864 51.8836 18.287 51.4832 18.287C51.0903 18.287 50.7345 18.3864 50.4157 18.5852C50.0969 18.7839 49.8448 19.0527 49.6595 19.3914C49.4815 19.7301 49.3926 20.1166 49.3926 20.551C49.3926 20.9781 49.4815 21.3646 49.6595 21.7107C49.8448 22.0494 50.0932 22.3181 50.4045 22.5169C50.7233 22.7157 51.0829 22.8151 51.4832 22.8151Z" fill="#B2B2B2"/>
<path fill-rule="evenodd" clip-rule="evenodd" d="M57.0326 23.2463C57.4848 23.5113 57.989 23.6439 58.545 23.6439C58.9527 23.6439 59.3234 23.5776 59.657 23.4451C59.9981 23.3052 60.2909 23.1248 60.5356 22.9038C60.7802 22.6756 60.9619 22.4289 61.0805 22.1638L60.3688 21.7883C60.1834 22.0976 59.9425 22.3553 59.6459 22.5614C59.3494 22.7676 58.9824 22.8707 58.545 22.8707C58.1669 22.8707 57.811 22.7749 57.4774 22.5835C57.1512 22.3921 56.8917 22.1233 56.699 21.7773C56.5493 21.4918 56.4722 21.1678 56.4675 20.8054H61.1583C61.1731 20.7097 61.1843 20.6176 61.1917 20.5293C61.1991 20.4336 61.2028 20.3489 61.2028 20.2753C61.2028 19.9219 61.1398 19.5795 61.0138 19.2482C60.8877 18.9095 60.7061 18.6076 60.4688 18.3425C60.2316 18.0701 59.9425 17.8566 59.6014 17.702C59.2678 17.54 58.886 17.459 58.456 17.459C57.9148 17.459 57.4255 17.5915 56.9881 17.8566C56.5581 18.1216 56.2171 18.4861 55.965 18.95C55.7129 19.4065 55.5869 19.9329 55.5869 20.5293C55.5869 21.1257 55.7167 21.6595 55.9761 22.1307C56.2356 22.6019 56.5878 22.9737 57.0326 23.2463ZM56.4807 20.0323C56.5083 19.7712 56.5773 19.5356 56.6878 19.3255C56.8658 18.9794 57.1104 18.7107 57.4218 18.5192C57.7406 18.3278 58.0853 18.2321 58.456 18.2321C58.8267 18.2321 59.1603 18.3278 59.4569 18.5192C59.7534 18.7033 59.9795 18.9573 60.1352 19.2813C60.2525 19.5088 60.3101 19.7592 60.3088 20.0323H56.4807Z" fill="#B2B2B2"/>
<path d="M62.3398 17.5915H63.1739V18.3126C63.3259 18.0796 63.5223 17.8908 63.7633 17.7461C64.0895 17.5547 64.4453 17.459 64.8308 17.459C65.2905 17.459 65.7057 17.5878 66.0764 17.8455C66.3629 18.0447 66.5853 18.2901 66.7434 18.5817C66.896 18.261 67.1147 18.0083 67.3997 17.8234C67.7704 17.5805 68.1781 17.459 68.623 17.459C69.0233 17.459 69.3903 17.5547 69.7239 17.7461C70.0649 17.9376 70.3355 18.2026 70.5357 18.5413C70.7433 18.8726 70.8471 19.2482 70.8471 19.6678V23.5113H70.013V19.9881C70.013 19.6273 69.9463 19.3218 69.8129 19.0714C69.6868 18.8211 69.5126 18.6297 69.2902 18.4971C69.0678 18.3573 68.812 18.2873 68.5229 18.2873C68.2412 18.2873 67.9854 18.3573 67.7556 18.4971C67.5257 18.6297 67.3441 18.8248 67.2106 19.0825C67.0772 19.3328 67.0105 19.6347 67.0105 19.9881V23.5113H66.1764V19.9881C66.1764 19.6273 66.1097 19.3218 65.9763 19.0714C65.8502 18.8211 65.676 18.6297 65.4536 18.4971C65.2312 18.3573 64.9754 18.2873 64.6863 18.2873C64.3971 18.2873 64.1377 18.3573 63.9078 18.4971C63.6854 18.6297 63.5075 18.8248 63.3741 19.0825C63.2406 19.3328 63.1739 19.6347 63.1739 19.9881V23.5113H62.3398V17.5915Z" fill="#B2B2B2"/>
<path d="M72.119 25.9404C72.0004 25.9404 71.878 25.9293 71.752 25.9072C71.6334 25.8925 71.5148 25.8631 71.3961 25.8189V25.0458C71.4703 25.0531 71.563 25.0642 71.6742 25.0789C71.7928 25.101 71.9114 25.112 72.03 25.112C72.3933 25.112 72.6713 25.0347 72.8641 24.8801C73.0568 24.7329 73.2459 24.4457 73.4312 24.0187L73.6467 23.515L71.2627 17.5908H72.1635L74.1149 22.4774L76.0557 17.5908H76.9787L74.2541 24.2616C74.1355 24.5488 73.9835 24.8212 73.7982 25.0789C73.6203 25.3366 73.3941 25.5428 73.1198 25.6974C72.8455 25.8594 72.5119 25.9404 72.119 25.9404Z" fill="#B2B2B2"/>
<path fill-rule="evenodd" clip-rule="evenodd" d="M43.4288 23.434C43.7253 23.5739 44.0627 23.6439 44.441 23.6439C44.7894 23.6439 45.1082 23.5923 45.3971 23.4892C45.6937 23.3788 45.9495 23.2352 46.1645 23.0585C46.3134 22.9352 46.4357 22.8037 46.5314 22.664V23.5113H47.3657V19.4469C47.3657 19.0567 47.2693 18.7143 47.0763 18.4198C46.891 18.118 46.6278 17.8823 46.287 17.713C45.9532 17.5437 45.5679 17.459 45.1302 17.459C44.7969 17.459 44.4741 17.5216 44.1628 17.6467C43.8514 17.7645 43.5734 17.9265 43.3287 18.1327C43.0917 18.3388 42.9172 18.5671 42.806 18.8174L43.5625 19.2261C43.6957 18.9389 43.8996 18.707 44.1741 18.5303C44.4482 18.3462 44.767 18.2542 45.1302 18.2542C45.5454 18.2542 45.883 18.3646 46.1424 18.5855C46.4017 18.8064 46.5314 19.0935 46.5314 19.4469V19.7525L44.374 20.1096C43.9366 20.1832 43.5771 20.3084 43.2956 20.4851C43.0136 20.6618 42.806 20.879 42.6726 21.1367C42.5394 21.3871 42.4727 21.6668 42.4727 21.9761C42.4727 22.3 42.5577 22.5872 42.7282 22.8375C42.8989 23.088 43.1322 23.2868 43.4288 23.434ZM46.5314 20.5035V20.949C46.5314 21.3097 46.4464 21.6374 46.2757 21.9319C46.1051 22.2264 45.8679 22.462 45.5642 22.6387C45.2602 22.8081 44.9044 22.8928 44.4964 22.8928C44.1628 22.8928 43.8884 22.8007 43.6734 22.6166C43.4661 22.4326 43.3623 22.208 43.3623 21.9429C43.3623 21.6705 43.455 21.4349 43.6401 21.2361C43.8328 21.0373 44.1442 20.9011 44.5742 20.8275L46.5314 20.5035Z" fill="#B2B2B2"/>
<path d="M39.2163 23.6439C38.6306 23.6439 38.1153 23.5076 37.6705 23.2352C37.2257 22.9627 36.8772 22.5946 36.6252 22.1307C36.3731 21.6595 36.2471 21.1294 36.2471 20.5403C36.2471 19.9513 36.3731 19.4249 36.6252 18.961C36.8772 18.4971 37.2257 18.1327 37.6705 17.8676C38.1153 17.5952 38.6306 17.459 39.2163 17.459C39.5869 17.459 39.9354 17.5252 40.2616 17.6578C40.5878 17.7903 40.8769 17.9707 41.129 18.1989C41.3811 18.4198 41.5701 18.6775 41.6961 18.972L40.94 19.3586C40.7917 19.042 40.5656 18.7843 40.2616 18.5855C39.9576 18.3867 39.6092 18.2873 39.2163 18.2873C38.8233 18.2873 38.4675 18.3867 38.1487 18.5855C37.8373 18.7769 37.589 19.0457 37.4036 19.3917C37.2257 19.7304 37.1367 20.117 37.1367 20.5514C37.1367 20.9784 37.2257 21.365 37.4036 21.711C37.589 22.0497 37.8373 22.3185 38.1487 22.5173C38.4675 22.716 38.8233 22.8154 39.2163 22.8154C39.6092 22.8154 39.9539 22.716 40.2505 22.5173C40.5544 22.3185 40.7843 22.0534 40.94 21.7221L41.6961 22.1307C41.5701 22.4179 41.3811 22.6756 41.129 22.9038C40.8769 23.1321 40.5878 23.3125 40.2616 23.4451C39.9354 23.5776 39.5869 23.6439 39.2163 23.6439Z" fill="#B2B2B2"/>
<path fill-rule="evenodd" clip-rule="evenodd" d="M32.0785 15.2832L29.0537 23.5113H29.9878L30.7107 21.5011H34.4138L35.1255 23.5113H36.0597L33.0349 15.2832H32.0785ZM34.1025 20.6728H30.9998L32.5562 16.3203L34.1025 20.6728Z" fill="#B2B2B2"/>
<path d="M29.8076 1.95508V11.7759H36.0463V9.99628H31.8649V1.95508H29.8076Z" fill="#111112"/>
<path d="M61.2266 11.7766H63.2176V4.5791H61.2266V11.7766Z" fill="#111112"/>
<path d="M61.2266 1.95508V3.93244H63.2176V1.95508H61.2266Z" fill="#111112"/>
<path fill-rule="evenodd" clip-rule="evenodd" d="M64.2764 14.4131V4.57908H66.1347V5.32577C66.3494 5.07483 66.6147 4.87426 66.9309 4.72409C67.3468 4.52195 67.8204 4.4209 68.3514 4.4209C69.0415 4.4209 69.6652 4.58787 70.2229 4.92182C70.7803 5.25577 71.2228 5.70836 71.5502 6.2796C71.8775 6.84205 72.0413 7.47479 72.0413 8.17785C72.0413 8.87212 71.8775 9.50487 71.5502 10.0761C71.2316 10.6473 70.7935 11.0999 70.2361 11.4339C69.6786 11.7678 69.0459 11.9348 68.3379 11.9348C67.8424 11.9348 67.3822 11.8469 66.9576 11.6712C66.696 11.5551 66.466 11.406 66.2674 11.2239V14.4131H64.2764ZM68.0991 10.1552C68.4707 10.1552 68.798 10.0717 69.0814 9.90474C69.3645 9.73776 69.5857 9.50487 69.7449 9.20607C69.9043 8.90728 69.9838 8.56454 69.9838 8.17785C69.9838 7.79117 69.9043 7.45282 69.7449 7.16282C69.5857 6.86402 69.3645 6.63113 69.0814 6.46415C68.798 6.28839 68.4707 6.2005 68.0991 6.2005C67.7451 6.2005 67.4265 6.28399 67.1434 6.45097C66.8691 6.61794 66.6522 6.85082 66.4931 7.14963C66.3425 7.44843 66.2674 7.79117 66.2674 8.17785C66.2674 8.56454 66.3425 8.90728 66.4931 9.20607C66.6522 9.50487 66.8691 9.73776 67.1434 9.90474C67.4265 10.0717 67.7451 10.1552 68.0991 10.1552Z" fill="#111112"/>
<path d="M73.5656 11.3812C74.1585 11.7503 74.8531 11.9348 75.6496 11.9348C76.2158 11.9348 76.707 11.8425 77.1228 11.658C77.5387 11.4646 77.8619 11.201 78.0919 10.8671C78.3308 10.5331 78.4503 10.142 78.4503 9.69381C78.4503 9.17531 78.2909 8.7403 77.9724 8.38877C77.6538 8.02846 77.1937 7.7604 76.592 7.58464L75.4371 7.2419C75.2601 7.18919 75.1098 7.13205 74.9858 7.07053C74.8709 7.00903 74.7868 6.93871 74.7338 6.85963C74.6807 6.78052 74.6541 6.69263 74.6541 6.59597C74.6541 6.41142 74.7247 6.26642 74.8665 6.16097C75.0169 6.05549 75.2203 6.00278 75.477 6.00278C75.831 6.00278 76.1451 6.09505 76.4194 6.2796C76.7026 6.45536 76.8972 6.69263 77.0035 6.99145L78.4767 6.30597C78.2555 5.70836 77.8751 5.24699 77.3353 4.92182C76.8043 4.58787 76.185 4.4209 75.477 4.4209C74.9372 4.4209 74.4594 4.51756 74.0434 4.7109C73.6275 4.89546 73.3045 5.1547 73.0745 5.48865C72.8444 5.82262 72.7295 6.21368 72.7295 6.66189C72.7295 7.17161 72.8887 7.6154 73.2072 7.9933C73.5258 8.36241 73.9815 8.63044 74.5744 8.79743L75.8087 9.14015C75.9681 9.1841 76.1009 9.23683 76.207 9.29834C76.3131 9.35986 76.3928 9.43018 76.4459 9.50926C76.4991 9.57957 76.5256 9.66745 76.5256 9.77292C76.5256 9.97505 76.4503 10.1332 76.2999 10.2475C76.1495 10.3617 75.9327 10.4188 75.6496 10.4188C75.2601 10.4188 74.9064 10.309 74.5876 10.0893C74.269 9.86958 74.0169 9.56639 73.8311 9.1797L72.3711 9.86518C72.5833 10.4979 72.9816 11.0033 73.5656 11.3812Z" fill="#111112"/>
<path d="M86.79 4.57908H88.6483V5.44854C88.7843 5.18548 88.9745 4.97474 89.2192 4.81635C89.6262 4.55272 90.1128 4.4209 90.6792 4.4209C91.2809 4.4209 91.8075 4.57469 92.2588 4.88227C92.5271 5.05656 92.7368 5.26675 92.8878 5.51283C93.0796 5.23438 93.3081 5.01101 93.5729 4.84272C94.0152 4.56151 94.533 4.4209 95.1258 4.4209C95.6478 4.4209 96.1081 4.53514 96.5062 4.76364C96.9132 4.99212 97.2318 5.31288 97.4618 5.72594C97.6919 6.1302 97.807 6.60476 97.807 7.14963V11.7766H95.816V7.57145C95.816 7.29024 95.7629 7.04858 95.6568 6.84645C95.5593 6.64431 95.4177 6.48613 95.2319 6.37186C95.0461 6.25763 94.8205 6.20049 94.555 6.20049C94.2985 6.20049 94.0729 6.25763 93.8782 6.37186C93.6922 6.48613 93.5462 6.64431 93.4401 6.84645C93.3428 7.04858 93.2942 7.29024 93.2942 7.57145V11.7766H91.3031V7.57145C91.3031 7.29024 91.2501 7.04858 91.1437 6.84645C91.0464 6.64431 90.9049 6.48613 90.7191 6.37186C90.5333 6.25763 90.3076 6.20049 90.0421 6.20049C89.7854 6.20049 89.5598 6.25763 89.3651 6.37186C89.1793 6.48613 89.0334 6.64431 88.927 6.84645C88.8297 7.04858 88.7811 7.29024 88.7811 7.57145V11.7766H86.79V4.57908Z" fill="#111112"/>
<path d="M81.8432 11.9348C81.2591 11.9348 80.7592 11.8118 80.3433 11.5657C79.9362 11.3109 79.6265 10.9593 79.4143 10.5111C79.2018 10.0629 79.0957 9.54004 79.0957 8.94245V4.5791H81.0867V8.78425C81.0867 9.05669 81.1398 9.29836 81.2459 9.50928C81.3611 9.71141 81.5202 9.8696 81.7239 9.98386C81.9273 10.0981 82.1573 10.1552 82.414 10.1552C82.6795 10.1552 82.9096 10.0981 83.1042 9.98386C83.3079 9.8696 83.4626 9.71141 83.5687 9.50928C83.6839 9.29836 83.7413 9.05669 83.7413 8.78425V4.5791H85.7324V11.7766H83.8741V10.9008C83.7052 11.2168 83.4663 11.4604 83.1573 11.6316C82.7856 11.8338 82.3475 11.9348 81.8432 11.9348Z" fill="#111112"/>
<path fill-rule="evenodd" clip-rule="evenodd" d="M56.5757 11.9348C55.8589 11.9348 55.2039 11.7722 54.6111 11.4471C54.027 11.1219 53.5581 10.6781 53.2041 10.1157C52.8591 9.54442 52.6865 8.89849 52.6865 8.17785C52.6865 7.44843 52.8591 6.8025 53.2041 6.24005C53.5581 5.6776 54.027 5.2338 54.6111 4.90864C55.2039 4.58348 55.8589 4.4209 56.5757 4.4209C57.2923 4.4209 57.9428 4.58348 58.5269 4.90864C59.1107 5.2338 59.5755 5.6776 59.9205 6.24005C60.2745 6.8025 60.4515 7.44843 60.4515 8.17785C60.4515 8.89849 60.2745 9.54442 59.9205 10.1157C59.5755 10.6781 59.1107 11.1219 58.5269 11.4471C57.9428 11.7722 57.2923 11.9348 56.5757 11.9348ZM56.5757 10.1552C56.9385 10.1552 57.2527 10.0717 57.5179 9.90474C57.7923 9.73776 58.0047 9.50487 58.1551 9.20607C58.3145 8.90728 58.3942 8.56454 58.3942 8.17785C58.3942 7.79117 58.3145 7.45282 58.1551 7.16282C58.0047 6.86402 57.7923 6.63113 57.5179 6.46415C57.2527 6.28839 56.9385 6.20049 56.5757 6.20049C56.2129 6.20049 55.8943 6.28839 55.62 6.46415C55.3455 6.63113 55.1289 6.86402 54.9695 7.16282C54.8191 7.45282 54.7438 7.79117 54.7438 8.17785C54.7438 8.56454 54.8191 8.90728 54.9695 9.20607C55.1289 9.50487 55.3455 9.73776 55.62 9.90474C55.8943 10.0717 56.2129 10.1552 56.5757 10.1552Z" fill="#111112"/>
<path fill-rule="evenodd" clip-rule="evenodd" d="M46.7749 14.3999C47.2526 14.5845 47.7704 14.6767 48.3279 14.6767C49.0268 14.6767 49.6419 14.5361 50.1729 14.2549C50.7128 13.9737 51.1374 13.5826 51.4472 13.0817C51.7567 12.5895 51.9117 12.0271 51.9117 11.3943V4.57908H50.0534V5.33504C49.8347 5.08026 49.587 4.88098 49.3102 4.73727C48.9207 4.52635 48.465 4.4209 47.9428 4.4209C47.2793 4.4209 46.6864 4.5703 46.1642 4.86909C45.6422 5.16788 45.2308 5.58094 44.9298 6.10823C44.6289 6.62673 44.4785 7.22432 44.4785 7.90101C44.4785 8.57772 44.6289 9.1841 44.9298 9.72018C45.2308 10.2475 45.6466 10.6649 46.1776 10.9725C46.7084 11.2713 47.3101 11.4207 47.9827 11.4207C48.5049 11.4207 48.9606 11.324 49.3498 11.1307C49.5608 11.0211 49.7513 10.8819 49.9206 10.7129V11.3943C49.9206 11.7019 49.8544 11.97 49.7216 12.1985C49.5977 12.427 49.4163 12.5983 49.1774 12.7126C48.9383 12.8356 48.6552 12.8971 48.3279 12.8971C47.912 12.8971 47.5536 12.8004 47.2526 12.6071C46.9519 12.4138 46.7527 12.1501 46.6554 11.8162L44.8103 12.4621C44.9609 12.9103 45.2041 13.297 45.5405 13.6221C45.8855 13.9561 46.297 14.2154 46.7749 14.3999ZM49.1376 9.41699C48.8897 9.5576 48.5978 9.62792 48.2614 9.62792C47.9252 9.62792 47.6242 9.5576 47.359 9.41699C47.1023 9.2676 46.8986 9.06546 46.7483 8.8106C46.6067 8.55575 46.5358 8.26135 46.5358 7.92738C46.5358 7.58464 46.6067 7.28585 46.7483 7.031C46.8986 6.76734 47.1023 6.56521 47.359 6.4246C47.6242 6.2752 47.9252 6.20049 48.2614 6.20049C48.589 6.20049 48.8765 6.2752 49.1241 6.4246C49.372 6.56521 49.5666 6.76734 49.7082 7.031C49.85 7.28585 49.9206 7.58464 49.9206 7.92738C49.9206 8.27012 49.85 8.56893 49.7082 8.82378C49.5754 9.07865 49.3852 9.27639 49.1376 9.41699Z" fill="#111112"/>
<path fill-rule="evenodd" clip-rule="evenodd" d="M40.1194 11.9348C39.4026 11.9348 38.7479 11.7722 38.155 11.4471C37.571 11.1219 37.102 10.6781 36.748 10.1157C36.4028 9.54442 36.2305 8.89849 36.2305 8.17785C36.2305 7.44843 36.4028 6.8025 36.748 6.24005C37.102 5.6776 37.571 5.2338 38.155 4.90864C38.7479 4.58348 39.4026 4.4209 40.1194 4.4209C40.8362 4.4209 41.4866 4.58348 42.0706 4.90864C42.6547 5.2338 43.1192 5.6776 43.4644 6.24005C43.8184 6.8025 43.9954 7.44843 43.9954 8.17785C43.9954 8.89849 43.8184 9.54442 43.4644 10.1157C43.1192 10.6781 42.6547 11.1219 42.0706 11.4471C41.4866 11.7722 40.8362 11.9348 40.1194 11.9348ZM40.1194 10.1552C40.4822 10.1552 40.7964 10.0717 41.0619 9.90474C41.3362 9.73776 41.5486 9.50487 41.699 9.20607C41.8584 8.90728 41.9379 8.56454 41.9379 8.17785C41.9379 7.79117 41.8584 7.45282 41.699 7.16282C41.5486 6.86402 41.3362 6.63113 41.0619 6.46415C40.7964 6.28839 40.4822 6.20049 40.1194 6.20049C39.7566 6.20049 39.4381 6.28839 39.1638 6.46415C38.8894 6.63113 38.6726 6.86402 38.5134 7.16282C38.3631 7.45282 38.2878 7.79117 38.2878 8.17785C38.2878 8.56454 38.3631 8.90728 38.5134 9.20607C38.6726 9.50487 38.8894 9.73776 39.1638 9.90474C39.4381 10.0717 39.7566 10.1552 40.1194 10.1552Z" fill="#111112"/>
</g>
<defs>
<clipPath id="clip0_6091_5511">
<rect width="98" height="26" fill="white"/>
</clipPath>
</defs>
</svg>
