<svg width="32" height="32" viewBox="0 0 32 32" fill="none" xmlns="http://www.w3.org/2000/svg">
<g clip-path="url(#clip0_464_17691)">
<path d="M29.9786 15.9975C30.852 15.2633 31.4084 14.1636 31.4084 12.936C31.4084 11.2346 30.34 9.77884 28.8391 9.20205V8.37329C28.8391 6.28064 27.441 4.50936 25.5301 3.94189C24.9193 1.67421 22.8458 0 20.3878 0C18.569 0 16.9609 0.917024 15.9996 2.31237C15.0383 0.917024 13.4303 0 11.6115 0C9.15346 0 7.08 1.67421 6.46902 3.94189C4.55815 4.50942 3.16005 6.28071 3.16005 8.37329V9.20205C1.65924 9.77884 0.59082 11.2346 0.59082 12.936C0.59082 14.1637 1.14722 15.2633 2.02061 15.9975C1.14722 16.7318 0.59082 17.8315 0.59082 19.059C0.59082 20.7604 1.65924 22.2162 3.16005 22.793V23.6215C3.16005 25.7135 4.5574 27.4844 6.46746 28.0524C7.0765 30.323 9.15139 31.9999 11.6115 31.9999C13.4304 31.9999 15.0385 31.0829 15.9997 29.6876C16.961 31.083 18.569 31.9999 20.3879 31.9999C22.848 31.9999 24.9229 30.323 25.5319 28.0524C27.442 27.4844 28.8393 25.7135 28.8393 23.6215V22.7931C30.3401 22.2163 31.4086 20.7606 31.4086 19.0591C31.4085 17.8315 30.852 16.7318 29.9786 15.9975ZM15.9996 13.647C15.0697 13.647 14.3131 12.8904 14.3131 11.9605C14.3131 11.0306 15.0697 10.2741 15.9996 10.2741C16.9295 10.2741 17.686 11.0306 17.686 11.9605C17.686 12.8904 16.9295 13.647 15.9996 13.647ZM11.6115 30.1247C10.2509 30.1247 9.0722 29.333 8.51067 28.1864C10.715 27.8361 12.4054 25.9228 12.4054 23.6215H10.5301C10.5301 25.1364 9.29767 26.3689 7.78274 26.3689C6.2678 26.3689 5.03535 25.1364 5.03535 23.6215V23.0584H6.3105V21.1831H4.59016C3.41897 21.1831 2.46612 20.2303 2.46612 19.0591C2.46612 17.8903 3.41503 16.9392 4.58297 16.9352C4.58541 16.9352 4.58778 16.9354 4.59016 16.9354V16.9351V15.0601V15.0598C4.58772 15.0598 4.58534 15.0599 4.58297 15.0599C3.41509 15.056 2.46612 14.1048 2.46612 12.936C2.46612 11.7648 3.41897 10.812 4.59016 10.812H6.3105V8.9367H5.03529V8.37329C5.03529 6.85842 6.26774 5.62591 7.78267 5.62591C9.29761 5.62591 10.5301 6.85836 10.5301 8.37329H12.4054C12.4054 6.07292 10.7161 4.16011 8.51304 3.80887C9.07557 2.66481 10.2528 1.8753 11.6115 1.8753C13.5132 1.8753 15.0604 3.42162 15.062 5.32293C15.062 5.32393 15.0619 5.32493 15.0619 5.32593H15.062V8.52494C13.5516 8.93757 12.4378 10.321 12.4378 11.9606C12.4378 12.6062 12.6113 13.2117 12.9129 13.7345L10.6409 16.0191C10.2755 15.8451 9.86695 15.7474 9.436 15.7474C7.88494 15.7474 6.62305 17.0093 6.62305 18.5604C6.62305 20.1114 7.88494 21.3733 9.436 21.3733C10.9871 21.3733 12.249 20.1114 12.249 18.5604C12.249 18.1239 12.149 17.7103 11.9709 17.3413L14.2427 15.057C14.4979 15.2024 14.7726 15.3172 15.0621 15.3963V26.6742H15.062C15.062 26.6752 15.062 26.6762 15.062 26.6772C15.0604 28.5784 13.5131 30.1247 11.6115 30.1247ZM10.3737 18.5603C10.3737 19.0773 9.95303 19.498 9.436 19.498C8.91898 19.498 8.49835 19.0773 8.49835 18.5603C8.49835 18.0433 8.91898 17.6227 9.436 17.6227C9.95303 17.6227 10.3737 18.0433 10.3737 18.5603ZM27.4091 21.1831H25.6888V23.0584H26.9639V23.6215C26.9639 25.1364 25.7315 26.3689 24.2166 26.3689C22.7017 26.3689 21.4692 25.1364 21.4692 23.6215H19.5939C19.5939 25.9228 21.2844 27.8361 23.4886 28.1864C22.9271 29.3331 21.7483 30.1248 20.3878 30.1248C18.4859 30.1248 16.9386 28.5781 16.9373 26.6766C16.9373 26.6758 16.9373 26.6749 16.9373 26.6741V15.3961C17.2267 15.317 17.5013 15.2022 17.7565 15.0569L20.0283 17.3412C19.8501 17.7102 19.7502 18.1237 19.7502 18.5603C19.7502 20.1113 21.0121 21.3732 22.5631 21.3732C24.1142 21.3732 25.3761 20.1113 25.3761 18.5603C25.3761 17.0092 24.1142 15.7473 22.5631 15.7473C22.1321 15.7473 21.7237 15.845 21.3582 16.019L19.0861 13.7344C19.3877 13.2116 19.5613 12.6061 19.5613 11.9604C19.5613 10.321 18.4476 8.93764 16.9373 8.52494V5.32593C16.9373 5.32511 16.9372 5.3243 16.9372 5.32349C16.9386 3.42193 18.4859 1.8753 20.3878 1.8753C21.7464 1.8753 22.9237 2.66481 23.4862 3.80887C21.2831 4.16017 19.5939 6.07286 19.5939 8.37329H21.4692C21.4692 6.85842 22.7017 5.62591 24.2166 5.62591C25.7315 5.62591 26.9639 6.85836 26.9639 8.37329V8.9367H25.6888V10.812H27.4092C28.5804 10.812 29.5332 11.7648 29.5332 12.936C29.5332 14.1048 28.5842 15.056 27.4164 15.0599C27.4139 15.0599 27.4115 15.0598 27.4092 15.0598V15.0601V16.9351V16.9354C27.4116 16.9354 27.414 16.9352 27.4164 16.9352C28.5842 16.9392 29.5332 17.8903 29.5332 19.0591C29.5332 20.2303 28.5804 21.1831 27.4091 21.1831ZM22.5631 17.6227C23.0802 17.6227 23.5008 18.0433 23.5008 18.5603C23.5008 19.0773 23.0802 19.498 22.5631 19.498C22.0461 19.498 21.6255 19.0773 21.6255 18.5603C21.6255 18.0433 22.046 17.6227 22.5631 17.6227Z" fill="#040D10"/>
</g>
<defs>
<clipPath id="clip0_464_17691">
<rect width="32" height="32" fill="white"/>
</clipPath>
</defs>
</svg>
